<?xml version="1.0" encoding="UTF-8" standalone="no"?>
<svg width="16px" height="16px" viewBox="0 0 16 16" version="1.1" xmlns="http://www.w3.org/2000/svg" xmlns:xlink="http://www.w3.org/1999/xlink" xmlns:sketch="http://www.bohemiancoding.com/sketch/ns">
    <!-- Generator: Sketch 3.5.1 (25234) - http://www.bohemiancoding.com/sketch -->
    <title>Group</title>
    <desc>Created with Sketch.</desc>
    <defs></defs>
    <g id="Page-1" stroke="none" stroke-width="1" fill="none" fill-rule="evenodd" sketch:type="MSPage">
        <g id="Group" sketch:type="MSLayerGroup" transform="translate(1.000000, 1.000000)" stroke="#575757" stroke-width="0.6" fill="#565656">
            <path d="M9.62,7.04 L6.38,9.78 C6.2,9.94 5.92,9.92 5.76,9.74 C5.6,9.56 5.62,9.28 5.8,9.12 L8.26,7.04 L5.8,4.96 C5.62,4.8 5.6,4.52 5.76,4.34 C5.92,4.16 6.2,4.14 6.38,4.3 L9.62,7.04 L9.62,7.04 Z" id="Shape" sketch:type="MSShapeGroup"></path>
            <path d="M14,7 C14,10.86 10.84,14 7,14 C3.16,14 0,10.84 0,7 C0,3.16 3.16,0 7,0 C10.84,0 14,3.14 14,7 L14,7 Z M0.86,7 C0.86,10.38 3.62,13.12 6.98,13.12 C10.34,13.12 13.12,10.38 13.12,7 C13.12,3.62 10.36,0.88 6.98,0.88 C3.6,0.88 0.86,3.64 0.86,7 L0.86,7 Z" id="Shape" sketch:type="MSShapeGroup"></path>
        </g>
    </g>
</svg>