<?xml version="1.0" encoding="UTF-8" standalone="no"?>
<svg width="10px" height="6px" viewBox="0 0 10 6" version="1.1" xmlns="http://www.w3.org/2000/svg" xmlns:xlink="http://www.w3.org/1999/xlink" xmlns:sketch="http://www.bohemiancoding.com/sketch/ns">
    <!-- Generator: Sketch 3.5.1 (25234) - http://www.bohemiancoding.com/sketch -->
    <title>noun_43333_cc</title>
    <desc>Created with Sketch.</desc>
    <defs></defs>
    <g id="Page-1" stroke="none" stroke-width="1" fill="none" fill-rule="evenodd" sketch:type="MSPage">
        <g id="noun_43333_cc" sketch:type="MSLayerGroup" fill="#FFFFFF">
            <path d="M0.751313131,0.0542769231 C0.666464646,0.0542769231 0.585050505,0.0702461538 0.51040404,0.0969230769 L5.00868687,3.50076923 L9.57333333,0.111046154 C9.48868687,0.0749538462 9.39656566,0.0541846154 9.29767677,0.0541846154 L0.751313131,0.0541846154 L0.751313131,0.0542769231 Z" id="Shape" sketch:type="MSShapeGroup"></path>
            <path d="M9.93424242,0.504553846 L5.18424242,4.03236923 C5.13242424,4.07076923 5.06969697,4.08969231 5.0069697,4.08969231 C4.9430303,4.08969231 4.87979798,4.06966154 4.8279798,4.03070769 L0.125959596,0.472246154 C0.104646465,0.531692308 0.0908080808,0.593169231 0.0908080808,0.657876923 L0.0908080808,5.32818462 C0.0908080808,5.39898462 0.106363636,5.46590769 0.130606061,5.52941538 L2.7510101,3.19181538 C2.86242424,3.09286154 3.04020202,3.09443077 3.14848485,3.19596923 C3.25666667,3.29732308 3.25434343,3.45941538 3.14383838,3.55892308 L0.526565657,5.89393846 C0.596767677,5.91701538 0.672121212,5.93178462 0.751313131,5.93178462 L9.29757576,5.93178462 C9.38616162,5.93178462 9.47020202,5.91526154 9.5479798,5.88664615 L6.91919192,3.54101538 C6.80757576,3.44215385 6.80575758,3.27904615 6.91454545,3.17796923 C7.02272727,3.07596923 7.20010101,3.07449231 7.31181818,3.17381538 L9.92626263,5.50569231 C9.94525253,5.44947692 9.95777778,5.39030769 9.95777778,5.32827692 L9.95777778,0.657876923 C9.95777778,0.6048 9.94808081,0.554307692 9.93424242,0.504553846 L9.93424242,0.504553846 Z" id="Shape" sketch:type="MSShapeGroup"></path>
        </g>
    </g>
</svg>