<?xml version="1.0" encoding="UTF-8" standalone="no"?>
<svg width="30px" height="30px" viewBox="0 0 30 30" version="1.1" xmlns="http://www.w3.org/2000/svg" xmlns:xlink="http://www.w3.org/1999/xlink" xmlns:sketch="http://www.bohemiancoding.com/sketch/ns">
    <!-- Generator: Sketch 3.5.2 (25235) - http://www.bohemiancoding.com/sketch -->
    <title>Skype</title>
    <desc>Created with Sketch.</desc>
    <defs></defs>
    <g id="Page-1" stroke="none" stroke-width="1" fill="none" fill-rule="evenodd" sketch:type="MSPage">
        <path d="M28.7527242,17.1720919 C28.8646716,16.4637896 28.9236096,15.7391661 28.9236096,14.9995465 C28.9236096,7.31214815 22.6920844,1.08076249 15.0044768,1.08076249 C14.2668102,1.08076249 13.5400942,1.14151397 12.8324197,1.25220581 C11.5505008,0.459018906 10.037503,0 8.41604541,0 C3.7708243,0 0.005,3.76533606 0.005,8.41104541 C0.005,10.0321543 0.464297902,11.5438965 1.25713606,12.8283962 C1.14742071,13.5378841 1.08701797,14.2602059 1.08701797,14.9998255 C1.08701797,22.6877819 7.31840364,28.9172843 15.0041978,28.9172843 C15.7424921,28.9172843 16.4694174,28.8603691 17.1770221,28.7487007 C18.4602663,29.5403532 19.9720085,30.0006275 21.5931174,30.0006275 C26.239594,30.0006275 30.0049998,26.234315 30.0049998,21.5887451 C30.0053485,19.9670085 29.5463296,18.455615 28.7527242,17.1720919 L28.7527242,17.1720919 Z M21.6129959,21.3299759 C21.0241739,22.1776369 20.1592152,22.8400442 19.0290005,23.3163609 C17.8964842,23.7939331 16.557929,24.0315683 15.0121492,24.0315683 C13.1594733,24.0315683 11.6255508,23.7073744 10.414776,23.0527093 C9.55651314,22.5839255 8.85846403,21.9550675 8.32181436,21.1708782 C7.78404871,20.3860612 7.51139943,19.6174957 7.51139943,18.8681113 C7.51139943,18.4260414 7.67998304,18.0415843 8.00815261,17.7281318 C8.33973989,17.4123776 8.7668137,17.2541168 9.27089053,17.2541168 C9.68380527,17.2541168 10.0384795,17.3784795 10.3272408,17.6249031 C10.6138399,17.871257 10.8542651,18.2294187 11.0508879,18.7020386 C11.2865701,19.2495692 11.5425494,19.7072628 11.8149196,20.0724692 C12.0856159,20.4331419 12.4665856,20.7342488 12.9599908,20.969931 C13.4479556,21.206241 14.0973896,21.324396 14.9100365,21.324396 C16.0221861,21.324396 16.9209731,21.0838313 17.6088389,20.6092584 C18.3001921,20.130361 18.6322676,19.5476769 18.6322676,18.8436293 C18.6322676,18.2820792 18.4532216,17.8361034 18.0860623,17.4884041 C17.715555,17.1361711 17.2370761,16.867916 16.6433019,16.6807791 C16.047226,16.4916893 15.2469247,16.2911606 14.2440022,16.0798905 C12.8972864,15.7859678 11.7709777,15.4438484 10.8588686,15.0509516 C9.94557369,14.6565901 9.21822995,14.1174993 8.67913906,13.4365387 C8.13893219,12.7488822 7.86956112,11.8941766 7.86956112,10.881838 C7.86956112,9.91651025 8.15392825,9.05322549 8.7232205,8.30188805 C9.29223376,7.54845815 10.1154825,6.97177249 11.1889214,6.57008735 C12.2585937,6.16854171 13.517914,5.96766427 14.9606046,5.96766427 C16.1143247,5.96766427 17.1122949,6.10116407 17.9570264,6.36676869 C18.7994562,6.63432628 19.5016903,6.98739629 20.0631706,7.43044265 C20.6210938,7.87251252 21.031637,8.33878533 21.2916617,8.82807535 C21.5514772,9.31883011 21.6823265,9.798146 21.6823265,10.2658835 C21.6823265,10.7007693 21.5137429,11.0952005 21.1852246,11.4408771 C20.856776,11.7870419 20.4366074,11.9635072 19.9459224,11.961903 C19.5035735,11.961903 19.1565717,11.85986 18.9159372,11.643847 C18.6815802,11.4348787 18.4354356,11.1021754 18.1692032,10.6384833 C17.8326638,9.99149054 17.4295837,9.48741371 16.9608696,9.12688055 C16.5045012,8.7730433 15.7515595,8.5888359 14.7038581,8.59106787 C13.734485,8.59106787 12.9588748,8.78915535 12.3734705,9.17654192 C11.7844393,9.57013616 11.5028621,10.0267836 11.5015369,10.561829 C11.5025134,10.897113 11.5989066,11.1798062 11.7928789,11.4215566 C11.9898504,11.665539 12.2638947,11.8769485 12.6161277,12.0551575 C12.9685002,12.2361565 13.3269409,12.3761429 13.6871253,12.4768606 C14.0515644,12.5801591 14.6562195,12.7294919 15.4966963,12.9272307 C16.5507448,13.1544035 17.5067959,13.4082205 18.3658957,13.6848455 C19.2233216,13.9628655 19.9550595,14.2981495 20.5595751,14.6976026 C21.1689033,15.0958701 21.6451502,15.6036436 21.9851074,16.2169475 C22.3275058,16.831228 22.4980424,17.5815192 22.4980424,18.4644034 C22.4993676,19.5275194 22.2032129,20.4836402 21.6129959,21.3299759 L21.6129959,21.3299759 Z" id="Skype" fill="#FFFFFF" sketch:type="MSShapeGroup"></path>
    </g>
</svg>